<?xml version="1.0" standalone="no"?>
<!DOCTYPE svg PUBLIC "-//W3C//DTD SVG 20010904//EN"
 "http://www.w3.org/TR/2001/REC-SVG-20010904/DTD/svg10.dtd">
<svg version="1.0" xmlns="http://www.w3.org/2000/svg"
 width="629.000000pt" height="235.000000pt" viewBox="0 0 629.000000 235.000000"
 preserveAspectRatio="xMidYMid meet">
<metadata>
Created by potrace 1.16, written by Peter Selinger 2001-2019
</metadata>
<g transform="translate(0.000000,235.000000) scale(0.100000,-0.100000)"
fill="#000000" stroke="none">
<path d="M1403 1645 c-285 -62 -474 -361 -408 -644 55 -232 245 -398 479 -418
333 -28 611 250 583 583 -28 325 -333 549 -654 479z m93 -272 c-7 -7 -131 8
-146 17 -29 18 55 175 112 210 l33 20 3 -121 c1 -67 1 -124 -2 -126z m128 184
c29 -38 76 -135 76 -158 0 -17 -54 -29 -126 -29 l-34 0 0 125 0 126 29 -16
c17 -8 41 -30 55 -48z m-253 3 c-16 -22 -39 -66 -51 -97 -13 -32 -25 -60 -26
-62 -4 -5 -133 40 -139 49 -14 23 176 149 228 150 14 0 13 -6 -12 -40z m364
10 c35 -16 86 -51 115 -77 52 -46 52 -47 28 -59 -12 -6 -47 -19 -76 -28 -49
-14 -53 -14 -59 2 -15 46 -68 153 -79 163 -17 14 -18 29 -3 29 6 0 39 -13 74
-30z m-569 -169 c21 -10 58 -24 80 -30 l42 -11 -8 -38 c-5 -20 -11 -70 -15
-109 -4 -42 -12 -73 -18 -73 -6 0 -21 10 -33 21 -13 12 -35 22 -50 22 -16 0
-35 -9 -45 -22 -13 -15 -28 -21 -59 -21 l-42 0 7 45 c9 64 41 153 70 197 14
21 27 38 28 38 2 0 21 -9 43 -19z m788 -34 c33 -55 54 -116 62 -177 l7 -50
-120 0 -120 0 -7 68 c-4 37 -10 85 -13 108 l-5 40 53 13 c30 6 65 18 79 26 35
20 36 20 64 -28z m-506 -33 c57 -7 66 -20 32 -54 -11 -11 -20 -29 -20 -40 0
-11 9 -29 20 -40 11 -11 20 -29 20 -40 0 -19 -7 -20 -101 -20 l-102 0 7 68 c4
37 10 84 13 105 6 37 7 38 42 33 20 -3 60 -8 89 -12z m281 -57 c6 -35 11 -80
11 -100 l0 -37 -100 0 c-93 0 -100 1 -100 20 0 11 9 29 20 40 11 11 20 29 20
40 0 11 -9 29 -20 40 -44 44 -25 53 111 58 l47 2 11 -63z m-615 -192 c14 -38
86 -37 109 1 4 8 14 14 21 14 9 0 17 -30 25 -100 6 -55 12 -105 13 -111 2 -6
-26 -21 -62 -33 -36 -13 -73 -26 -82 -30 -32 -14 -97 115 -113 227 l-7 47 45
0 c31 0 47 -5 51 -15z m386 -84 l0 -99 -67 -7 c-38 -3 -77 -7 -88 -8 -17 -2
-22 7 -31 63 -7 36 -12 84 -13 108 l-1 42 100 0 100 0 0 -99z m236 22 c-9
-113 -18 -139 -46 -135 -13 1 -33 13 -46 27 -28 30 -57 32 -84 5 l-20 -20 0
100 0 100 101 0 102 0 -7 -77z m280 25 c-8 -61 -44 -154 -77 -202 l-23 -33
-50 22 c-28 12 -65 25 -81 29 l-31 7 13 82 c6 45 12 97 12 115 l1 32 121 0
122 0 -7 -52z m-516 -308 l0 -121 -29 16 c-17 8 -41 30 -55 48 -27 35 -76 134
-76 154 0 12 35 18 118 21 l42 2 0 -120z m96 80 c9 0 28 7 44 16 15 10 35 14
45 11 19 -8 15 -27 -22 -102 -28 -58 -57 -91 -95 -111 l-28 -15 0 121 0 120
20 -20 c11 -11 27 -20 36 -20z m-256 -91 c12 -24 29 -52 38 -62 63 -72 -139
22 -207 96 -27 30 -31 27 67 57 l57 18 11 -32 c7 -18 22 -52 34 -77z m493 78
l59 -23 -45 -41 c-46 -42 -101 -75 -167 -98 l-37 -13 33 55 c18 31 41 76 50
99 19 51 26 52 107 21z"/>
<path d="M2565 1591 c-104 -28 -208 -120 -244 -217 -28 -74 -28 -184 0 -258
28 -77 96 -148 177 -188 60 -30 75 -33 152 -33 93 0 163 25 228 79 l32 28 0
104 0 105 -132 -3 -133 -3 0 -45 0 -45 88 -3 87 -3 0 -29 c0 -50 -78 -90 -173
-90 -253 1 -348 330 -136 472 63 42 133 54 202 34 31 -9 72 -30 91 -47 38 -33
53 -31 90 10 19 21 19 22 -9 51 -48 50 -127 82 -214 86 -42 2 -89 0 -106 -5z"/>
<path d="M4660 1425 c-7 -20 -36 -62 -66 -94 -63 -69 -68 -88 -21 -93 l32 -3
5 -135 c5 -137 14 -171 48 -188 33 -17 85 -22 124 -11 38 10 40 12 34 41 -3
17 -6 34 -6 39 0 5 -17 6 -39 3 -60 -10 -71 14 -71 148 l0 108 56 0 55 0 -3
43 -3 42 -52 3 -53 3 0 65 c0 74 -20 89 -40 29z"/>
<path d="M3010 1115 l0 -215 45 0 45 0 0 138 c0 153 7 173 65 198 25 10 41 11
71 3 36 -10 40 -9 61 17 27 34 25 44 -8 61 -38 20 -109 16 -148 -8 l-33 -20
-15 20 c-10 14 -25 21 -49 21 l-34 0 0 -215z"/>
<path d="M3462 1311 c-64 -22 -66 -24 -58 -53 12 -47 18 -49 79 -28 74 26 131
26 157 0 35 -35 25 -45 -62 -64 -128 -28 -179 -60 -198 -125 -13 -48 7 -100
49 -125 49 -28 145 -27 195 2 45 27 42 27 49 2 4 -16 14 -20 44 -20 l38 0 -3
158 c-4 177 -14 211 -71 249 -43 29 -142 31 -219 4z m198 -256 c0 -44 -2 -47
-42 -65 -52 -24 -121 -26 -138 -5 -31 38 11 77 110 104 66 18 70 16 70 -34z"/>
<path d="M3820 1318 c1 -26 205 -423 218 -423 13 0 212 397 212 423 0 9 -13
12 -45 10 l-46 -3 -56 -125 c-30 -69 -59 -129 -63 -133 -4 -4 -34 52 -67 125
l-60 133 -46 3 c-34 2 -47 -1 -47 -10z"/>
<path d="M4352 1118 l3 -213 43 -3 42 -3 0 215 0 216 -45 0 -45 0 2 -212z"/>
<path d="M4870 1319 c0 -7 40 -89 89 -183 l90 -172 -40 -73 c-22 -40 -60 -99
-84 -131 -25 -32 -45 -65 -45 -72 0 -8 11 -25 25 -38 l25 -23 26 24 c50 47
120 166 241 412 68 136 123 252 123 257 0 6 -22 10 -49 10 l-48 0 -31 -67
c-16 -38 -45 -99 -63 -137 l-32 -69 -69 136 -68 137 -45 0 c-27 0 -45 -5 -45
-11z"/>
</g>
</svg>
