<?xml version="1.0" standalone="no"?>
<!DOCTYPE svg PUBLIC "-//W3C//DTD SVG 20010904//EN"
 "http://www.w3.org/TR/2001/REC-SVG-20010904/DTD/svg10.dtd">
<svg version="1.0" xmlns="http://www.w3.org/2000/svg"
 width="157.000000pt" height="157.000000pt" viewBox="0 0 157.000000 157.000000"
 preserveAspectRatio="xMidYMid meet">
<metadata>
Created by potrace 1.16, written by Peter Selinger 2001-2019
</metadata>
<g transform="translate(0.000000,157.000000) scale(0.100000,-0.100000)"
fill="#000000" stroke="none">
<path d="M673 1325 c-285 -62 -474 -361 -408 -644 55 -232 245 -398 479 -418
333 -28 611 250 583 583 -28 325 -333 549 -654 479z m93 -272 c-7 -7 -131 8
-146 17 -29 18 55 175 112 210 l33 20 3 -121 c1 -67 1 -124 -2 -126z m128 184
c29 -38 76 -135 76 -158 0 -17 -54 -29 -126 -29 l-34 0 0 125 0 126 29 -16
c17 -8 41 -30 55 -48z m-253 3 c-16 -22 -39 -66 -51 -97 -13 -32 -25 -60 -26
-62 -4 -5 -133 40 -139 49 -14 23 176 149 228 150 14 0 13 -6 -12 -40z m364
10 c35 -16 86 -51 115 -77 52 -46 52 -47 28 -59 -12 -6 -47 -19 -76 -28 -49
-14 -53 -14 -59 2 -15 46 -68 153 -79 163 -17 14 -18 29 -3 29 6 0 39 -13 74
-30z m-569 -169 c21 -10 58 -24 80 -30 l42 -11 -8 -38 c-5 -20 -11 -70 -15
-109 -4 -42 -12 -73 -18 -73 -6 0 -21 10 -33 21 -13 12 -35 22 -50 22 -16 0
-35 -9 -45 -22 -13 -15 -28 -21 -59 -21 l-42 0 7 45 c9 64 41 153 70 197 14
21 27 38 28 38 2 0 21 -9 43 -19z m788 -34 c33 -55 54 -116 62 -177 l7 -50
-120 0 -120 0 -7 68 c-4 37 -10 85 -13 108 l-5 40 53 13 c30 6 65 18 79 26 35
20 36 20 64 -28z m-506 -33 c57 -7 66 -20 32 -54 -11 -11 -20 -29 -20 -40 0
-11 9 -29 20 -40 11 -11 20 -29 20 -40 0 -19 -7 -20 -101 -20 l-102 0 7 68 c4
37 10 84 13 105 6 37 7 38 42 33 20 -3 60 -8 89 -12z m281 -57 c6 -35 11 -80
11 -100 l0 -37 -100 0 c-93 0 -100 1 -100 20 0 11 9 29 20 40 11 11 20 29 20
40 0 11 -9 29 -20 40 -44 44 -25 53 111 58 l47 2 11 -63z m-615 -192 c14 -38
86 -37 109 1 4 8 14 14 21 14 9 0 17 -30 25 -100 6 -55 12 -105 13 -111 2 -6
-26 -21 -62 -33 -36 -13 -73 -26 -82 -30 -32 -14 -97 115 -113 227 l-7 47 45
0 c31 0 47 -5 51 -15z m386 -84 l0 -99 -67 -7 c-38 -3 -77 -7 -88 -8 -17 -2
-22 7 -31 63 -7 36 -12 84 -13 108 l-1 42 100 0 100 0 0 -99z m236 22 c-9
-113 -18 -139 -46 -135 -13 1 -33 13 -46 27 -28 30 -57 32 -84 5 l-20 -20 0
100 0 100 101 0 102 0 -7 -77z m280 25 c-8 -61 -44 -154 -77 -202 l-23 -33
-50 22 c-28 12 -65 25 -81 29 l-31 7 13 82 c6 45 12 97 12 115 l1 32 121 0
122 0 -7 -52z m-516 -308 l0 -121 -29 16 c-17 8 -41 30 -55 48 -27 35 -76 134
-76 154 0 12 35 18 118 21 l42 2 0 -120z m96 80 c9 0 28 7 44 16 15 10 35 14
45 11 19 -8 15 -27 -22 -102 -28 -58 -57 -91 -95 -111 l-28 -15 0 121 0 120
20 -20 c11 -11 27 -20 36 -20z m-256 -91 c12 -24 29 -52 38 -62 63 -72 -139
22 -207 96 -27 30 -31 27 67 57 l57 18 11 -32 c7 -18 22 -52 34 -77z m493 78
l59 -23 -45 -41 c-46 -42 -101 -75 -167 -98 l-37 -13 33 55 c18 31 41 76 50
99 19 51 26 52 107 21z"/>
</g>
</svg>
